PathFileType	4	(X/Y/Z)	38_2_99_p1_0-331.trc
DataRate	CameraRate	NumFrames	NumMarkers	Units	OrigDataRate	OrigDataStartFrame	OrigNumFrames
59.0	59.0	5	27	m	59.0	41	332
Frame#	Time	RHip			RKnee			RAnkle			RBigToe			RSmallToe			RHeel			LHip			LKnee			LAnkle			LBigToe			LSmallToe			LHeel			Neck			Head			Nose			RShoulder			RElbow			RWrist			RThumb			RIndex			RPinky			LShoulder			LElbow			LWrist			LThumb			LIndex			LPinky			
		X1	Y1	Z1	X2	Y2	Z2	X3	Y3	Z3	X4	Y4	Z4	X5	Y5	Z5	X6	Y6	Z6	X7	Y7	Z7	X8	Y8	Z8	X9	Y9	Z9	X10	Y10	Z10	X11	Y11	Z11	X12	Y12	Z12	X13	Y13	Z13	X14	Y14	Z14	X15	Y15	Z15	X16	Y16	Z16	X17	Y17	Z17	X18	Y18	Z18	X19	Y19	Z19	X20	Y20	Z20	X21	Y21	Z21	X22	Y22	Z22	X23	Y23	Z23	X24	Y24	Z24	X25	Y25	Z25	X26	Y26	Z26	X27	Y27	Z27	
41	0.6949152542372882	0.3840539909711368	0.7748359428805912	0.5389993086206661	0.36871591053633096	0.9048593719403211	0.9471597913653893	0.3634048643408826	1.0485257904616103	1.357943114097045	0.3197712862782372	0.8575384221669876	1.4233506720971636	0.3947815501594936	0.8643982460483454	1.4259994713953628	0.35876491955423573	1.175701811250651	1.410826201703861	0.17168632557668154	0.8111168649386802	0.5430523454883173	0.16756419463690922	0.9374159281435478	0.944189171300603	0.16339197740564176	1.060947819573467	1.3355999529272307	0.15727779134561598	0.868571142267749	1.4030972233805292	0.10721119385571866	0.9361600290717357	1.4073770499789118	0.19703478756149204	1.1504780319279428	1.3997856363003573	0.27785439950743196	0.6304642533151582	0.0011870735696687055	0.27601238363426606	0.4997628933467013	-0.2250856488326738	0.2719360114408901	0.4983914311651029	-0.09161632448626586	0.4411873772352282	0.6403101299922652	0.09518248385883518	0.42239275809805926	0.6424374023588103	0.37132428484262847	0.30663744109089713	0.6156502256105097	0.5652609801059215	0.22986504776048966	0.6426339994172027	0.6405099312148931	0.2284884552924975	0.6626377521588364	0.6498698002300494	0.24333403582450644	0.6583622944344429	0.6536920204408482	0.1334235382724737	0.6929861178746143	0.078568147314592	0.10376422406236599	0.6832900906186197	0.3422412255256067	0.20591119063136845	0.6463559486389102	0.5386738479365291	0.2561658667337089	0.6228100119404828	0.625700036548981	0.25040385713886787	0.6403571948360005	0.6457113032601657	0.23558287405144615	0.658577746702783	0.6422047195420308
42	0.711864406779661	0.38322699205514754	0.7726515859867674	0.5349689454387729	0.36804236644019717	0.9062353346245874	0.9513059874345365	0.36456413913423485	1.0516811818588512	1.3630480460831507	0.319603737012331	0.8572390368828576	1.4233733494640146	0.3945434166202123	0.8643463438557917	1.4261776441440932	0.35873661658016565	1.1756792049124094	1.4108988096663888	0.1715812987143075	0.8112724850024345	0.5428312011453243	0.167560859561851	0.9373306184409712	0.9441050316775559	0.16338347061477002	1.0610226824465956	1.3356266053209926	0.1572616308469618	0.8685484823002043	1.4030740024700872	0.10727984448456046	0.9359871745410615	1.407307517961441	0.1970143894714639	1.1507653554784631	1.40025029402155	0.27792478506128304	0.6303543965854478	0.0012216835127207618	0.2759851775589049	0.49972191376022934	-0.2251174673047295	0.2718912459210186	0.4983730831120912	-0.09146945831247004	0.44122169332636924	0.6402565397744868	0.09519607971496909	0.42254219449243113	0.642362796509024	0.37468275715573024	0.3066702581941618	0.6156942370409739	0.5652445246380462	0.22984541777987866	0.642634332117226	0.6403995782323203	0.2284087604321681	0.6626058538626743	0.6498693399418136	0.23855256157376142	0.6462552583138015	0.6527131879742369	0.12916586014122175	0.681015541078729	0.08002791521286436	0.0997014856659265	0.6714051592137377	0.3425613856449227	0.2031959171139354	0.6605175998506194	0.5390301554205887	0.2558684791327106	0.6223788096037967	0.6255137284325372	0.24541853503750735	0.6291232965118599	0.6446929443311671	0.23553271945934756	0.6584227200987084	0.6421922780908754
43	0.7288135593220338	0.38391988881452255	0.7752261534217979	0.5391103109382945	0.3687075032046101	0.904785476277501	0.9471637693377238	0.3633483919480008	1.0483388416387613	1.3579420133419242	0.31975044717305084	0.8573467725088203	1.423270526118138	0.3948416324708777	0.8647031596737756	1.4261351829885471	0.35873170484000894	1.1756236727113656	1.4108205270085432	0.17157552582285696	0.8112240358044547	0.5429064157601183	0.16751913413987235	0.9371346883663886	0.9440172132044757	0.1632388085616742	1.0616502342421974	1.331750221010901	0.15306744748744872	0.8541609993345164	1.398576670622741	0.1071766406379053	0.9357054456398601	1.4071098775089068	0.19696641241208887	1.1505187542096305	1.3998100006479064	0.27788749199765556	0.6304457014896202	0.0012232258690981883	0.27592516614192525	0.49964371045705064	-0.22516715136404064	0.2718215137901571	0.49835664347530484	-0.09131500460920294	0.44128136858288486	0.6403193594723978	0.0952179053585544	0.4224176086590299	0.6423988632126426	0.3712784081489363	0.30665502655808385	0.6154020714402192	0.5652467598399856	0.2297223282407743	0.642445517279589	0.640293676597223	0.22416981294414212	0.6624531080290142	0.6496863240766172	0.23843909655684725	0.6459961859289786	0.6526859649730259	0.13345240707957187	0.692912012632503	0.07852582091352797	0.09973718598058194	0.6716349303041411	0.34259399749253316	0.20326786276460865	0.6605838612916428	0.5390643588811492	0.2516565197478685	0.6204001625278687	0.6252737502544078	0.24528560535828747	0.6292025026232619	0.6415383874619227	0.23552185720109955	0.6585948684699933	0.6422537192428694
44	0.7457627118644068	0.38393180061419896	0.775523072312108	0.5393700884694209	0.3679997789557948	0.9061176376549044	0.9515446027880661	0.3683940695954489	1.0497555275809562	1.3583373767806008	0.3248833344692948	0.8704844531868561	1.4273883882666527	0.3948086851365603	0.8642402872873173	1.4259063922196846	0.35886964527697157	1.1758328295729656	1.4107869057021871	0.172302811242838	0.8138385515688441	0.5473242295862645	0.16753373055762247	0.9371727571139201	0.944065457981444	0.16318840405311044	1.0615859567817567	1.3317585284979425	0.15308199100248893	0.8540147357082485	1.398507676780113	0.10705839174308131	0.9355733825812648	1.4070372549174721	0.19677851951921224	1.1504246232004425	1.3998964597962806	0.2778639766594764	0.6303846037975066	0.0013099555760560898	0.2760036290093292	0.49969559922704593	-0.22493707226667525	0.2717610357727	0.498276358108981	-0.09117661499827205	0.4467642791596414	0.6521380289640485	0.09382929891855186	0.42234489489889315	0.6423739114033877	0.3714286463761476	0.30659816544567925	0.6156146127671995	0.5653314013210796	0.22954197542888843	0.6425334572826887	0.640081346929831	0.22399020552203622	0.6626044347275348	0.6495554384821202	0.23860234272307912	0.6461706980544288	0.6563741712230298	0.1291710123359788	0.6810241111128408	0.08007781125603469	0.10381406632026614	0.6835089196981055	0.342191161522319	0.2033172695496409	0.6607491251764797	0.5391152256213487	0.24688909789116478	0.6097632181525804	0.6245318072452574	0.24511394424075508	0.6290585120999583	0.6414351086987042	0.23106609774555265	0.6473620606271151	0.6413955501112875
45	0.7627118644067796	0.38393153750785686	0.7754521476086375	0.5391928803180699	0.3686990501223231	0.9046972217601671	0.9471185374918214	0.368403921154225	1.0497986681790625	1.3582816243234228	0.3248841168196039	0.8705706924149537	1.4274011116165304	0.3948443223025922	0.8643779431101112	1.4259215898267072	0.35890739086524975	1.1758544112073068	1.4107341948800964	0.17221592265394475	0.8138735356616332	0.5472022499440528	0.16752187375918826	0.9371510649651928	0.9439809265325334	0.16313384634861391	1.0616550643631668	1.3316968386741523	0.15304674799622459	0.854156748909753	1.3985228398821397	0.10700301947344966	0.9358731970268159	1.4071689023421643	0.19679783248291888	1.1502998874743589	1.3993857313823457	0.277875349313195	0.6304906161473304	0.001298469071817161	0.2759640958693537	0.5000175608976172	-0.2219699096600298	0.2718395075747191	0.49862959945698293	-0.08785478087397973	0.4467186188070779	0.65201189402643	0.09376647156099632	0.42241286752665386	0.642403347930378	0.3713876799198506	0.3065387666686705	0.6155939061698931	0.5652857988375767	0.22961419711182912	0.6425944869750017	0.6403376819146533	0.22416979603527856	0.6627445427370818	0.6498574704326339	0.2433766505964347	0.658381644312448	0.6574478007664202	0.12942666865224206	0.6804501235614782	0.07652071512029573	0.09993735103510934	0.6717225196276556	0.3461695743378202	0.2032413190602455	0.6609219921469893	0.539100560137815	0.25158812813105	0.6206556177434992	0.625331334501871	0.24521844494158493	0.6294130453218199	0.6415608041923265	0.23548138042351652	0.6588517066105849	0.6422255643296696
